<svg xmlns="http://www.w3.org/2000/svg" width="66" height="64.6" viewBox="0 0 66 64.6">
  <path d="M31.9 63.6h2.2c.2 0 .4-.2.4-.4v-4.5c0-.2-.2-.4-.4-.4h-2.2c-.2 0-.4.2-.4.4v4.5c.1.3.2.4.4.4zM3.4 38.2c2.8-.4 7.3-.6 12.2 1.3 3.4 1.2 5.8 3 7.6 4.6.7-3.2 2-6.2 3-8.1 1.8-3.4 4-5.8 5.8-7.4.6-.6 1.5-.6 2.1 0 1.8 1.7 4.2 4.3 6 7.9.3.5 1.9 3.8 2.8 7.7 1.8-1.6 4.3-3.4 7.7-4.6 4.9-1.8 9.4-1.7 12.2-1.3.5.1 1 .4 1.2.9.6-1.8 1-3.8 1-5.9 0-8.6-6-15.8-14.1-17.5C49.3 7.3 42 1 33.2 1c-8.8 0-16 6.3-17.6 14.6C7.3 17.2 1 24.5 1 33.2c0 2.2.4 4.3 1.1 6.2.1-.6.7-1.1 1.3-1.2z" style="fill:#fff;stroke:#231f20;stroke-width:2;stroke-miterlimit:10"/>
	<path d="M62.8 38.1c-2.8-.4-7.3-.6-12.2 1.3-3.4 1.2-5.9 3-7.7 4.6-.9-3.9-2.5-7.2-2.8-7.7-1.8-3.6-4.1-6.2-6-7.9-.6-.6-1.5-.6-2.1 0-1.7 1.6-4 4-5.8 7.4-1 2-2.3 5-3 8.1-1.8-1.6-4.3-3.3-7.6-4.6-4.9-1.8-9.4-1.7-12.2-1.3-.9.1-1.5 1-1.3 1.9C3.2 44.3 8.2 56 30.6 58h.1c1.1.2 2 .2 2.4.2s1.3 0 2.4-.2h.1C58 56.1 63 44.4 64.1 40.1c.2-.9-.4-1.8-1.3-2z" style="fill:#fff;stroke:#231f20;stroke-width:2;stroke-miterlimit:10"/>
</svg>